<?xml version="1.0" encoding="UTF-8" standalone="no"?>
<!-- Created with Inkscape (http://www.inkscape.org/) -->

<svg
   xmlns:dc="http://purl.org/dc/elements/1.1/"
   xmlns:cc="http://creativecommons.org/ns#"
   xmlns:rdf="http://www.w3.org/1999/02/22-rdf-syntax-ns#"
   xmlns:svg="http://www.w3.org/2000/svg"
   xmlns="http://www.w3.org/2000/svg"
   xmlns:sodipodi="http://sodipodi.sourceforge.net/DTD/sodipodi-0.dtd"
   xmlns:inkscape="http://www.inkscape.org/namespaces/inkscape"
   version="1.1"
   width="1024"
   height="1024"
   id="svg2"
   inkscape:version="0.48.4 r9939"
   sodipodi:docname="jstools.svg"
   inkscape:export-filename="/home/joshua/Imágenes/jstools.png"
   inkscape:export-xdpi="90"
   inkscape:export-ydpi="90">
  <sodipodi:namedview
     pagecolor="#ffffff"
     bordercolor="#666666"
     borderopacity="1"
     objecttolerance="10"
     gridtolerance="10"
     guidetolerance="10"
     inkscape:pageopacity="0"
     inkscape:pageshadow="2"
     inkscape:window-width="1366"
     inkscape:window-height="744"
     id="namedview7"
     showgrid="false"
     inkscape:zoom="0.4609375"
     inkscape:cx="521.22441"
     inkscape:cy="651.64482"
     inkscape:window-x="0"
     inkscape:window-y="24"
     inkscape:window-maximized="1"
     inkscape:current-layer="svg2" />
  <defs
     id="defs4">
    <filter
       id="filter3876"
       style="color-interpolation-filters:sRGB;"
       inkscape:label="Drop Shadow">
      <feFlood
         id="feFlood3878"
         flood-opacity="1"
         flood-color="rgb(0,0,0)"
         result="flood" />
      <feComposite
         id="feComposite3880"
         in2="SourceGraphic"
         in="flood"
         operator="in"
         result="composite1" />
      <feGaussianBlur
         id="feGaussianBlur3882"
         in="composite"
         stdDeviation="15"
         result="blur" />
      <feOffset
         id="feOffset3884"
         dx="0"
         dy="0"
         result="offset" />
      <feComposite
         id="feComposite3886"
         in2="offset"
         in="SourceGraphic"
         operator="over"
         result="composite2" />
    </filter>
    <filter
       id="filter3888"
       inkscape:label="Inner Shadow"
       inkscape:menu="Shadows and Glows"
       inkscape:menu-tooltip="Adds a colorizable drop shadow inside"
       color-interpolation-filters="sRGB">
      <feGaussianBlur
         id="feGaussianBlur3890"
         stdDeviation="87.571864406779667"
         result="result8" />
      <feOffset
         id="feOffset3892"
         dx="4"
         dy="4"
         result="result11" />
      <feComposite
         id="feComposite3894"
         in2="result11"
         result="result6"
         in="SourceGraphic"
         operator="in" />
      <feFlood
         id="feFlood3896"
         result="result10"
         in="result6"
         flood-opacity="1"
         flood-color="rgb(0,0,0)" />
      <feBlend
         id="feBlend3898"
         in2="result10"
         mode="normal"
         in="result6"
         result="result12" />
      <feComposite
         id="feComposite3900"
         in2="SourceGraphic"
         result="result2"
         operator="in" />
    </filter>
    <filter
       inkscape:collect="always"
       id="filter4042">
      <feGaussianBlur
         inkscape:collect="always"
         stdDeviation="22.109091"
         id="feGaussianBlur4044" />
    </filter>
    <mask
       maskUnits="userSpaceOnUse"
       id="mask4076">
      <rect
         mask="none"
         width="1024"
         height="1024"
         x="0"
         y="-3.8281252e-07"
         id="rect4078"
         style="fill:#ffffff;fill-opacity:1;stroke:none" />
    </mask>
    <filter
       id="filter3015"
       style="color-interpolation-filters:sRGB;"
       inkscape:label="Drop Shadow">
      <feFlood
         id="feFlood3017"
         flood-opacity="1"
         flood-color="rgb(0,0,0)"
         result="flood" />
      <feComposite
         id="feComposite3019"
         in2="SourceGraphic"
         in="flood"
         operator="in"
         result="composite1" />
      <feGaussianBlur
         id="feGaussianBlur3021"
         in="composite"
         stdDeviation="20"
         result="blur" />
      <feOffset
         id="feOffset3023"
         dx="0"
         dy="0"
         result="offset" />
      <feComposite
         id="feComposite3025"
         in2="offset"
         in="SourceGraphic"
         operator="over"
         result="composite2" />
    </filter>
  </defs>
  <metadata
     id="metadata7">
    <rdf:RDF>
      <cc:Work
         rdf:about="">
        <dc:format>image/svg+xml</dc:format>
        <dc:type
           rdf:resource="http://purl.org/dc/dcmitype/StillImage" />
        <dc:title />
      </cc:Work>
    </rdf:RDF>
  </metadata>
  <rect
     width="1024"
     height="1024"
     x="0"
     y="-3.8281252e-07"
     id="rect3000"
     style="fill:#000000;fill-opacity:0.86274511;stroke-width:10.62992125999999971;stroke-miterlimit:4;stroke-dasharray:none"
     mask="none" />
  <rect
     style="fill:none;fill-opacity:0.70588236999999998;stroke-width:35.43307087000000166;stroke-miterlimit:4;stroke-dasharray:none;stroke:#000000;stroke-opacity:1;filter:url(#filter4042)"
     id="rect3984"
     y="-3.8281252e-07"
     x="0"
     height="1024"
     width="1024"
     mask="url(#mask4076)" />
  <path
     d="m 489.28317,889.45909 -7.50261,-0.66389 -7.48526,-1.50112 c -18.24648,-3.65909 -33.78922,-10.67071 -47.64549,-21.49363 l -5.90004,-4.60844 -4.95774,-5.2573 c -7.69882,-8.16392 -14.74728,-18.24506 -19.77007,-28.2764 l -1.86272,-3.72013 4.88744,-2.94318 c 2.68809,-1.61884 15.86538,-9.58426 29.28287,-17.70103 13.4175,-8.11677 24.48482,-14.65931 24.59405,-14.53896 0.10924,0.12034 1.84517,3.01526 3.85764,6.43323 4.96758,8.43692 9.8275,14.9081 14.64471,19.49994 l 4.02604,3.8377 4.81797,2.48996 4.81797,2.48996 3.64651,0.88333 3.64651,0.8834 7.87377,-0.0212 7.87375,-0.0212 4.92983,-1.21153 4.92982,-1.21146 3.81672,-2.15262 3.81671,-2.15263 2.67443,-3.066 2.67443,-3.06593 2.15728,-4.68097 2.15728,-4.68089 1.18001,-5.18916 1.17999,-5.1891 0.24392,-128.85908 0.24389,-128.85908 35.80515,0 35.80517,0 0,129.07067 0,129.07066 -0.78108,7.09957 c -2.53396,23.03255 -10.81138,43.41758 -23.61668,58.16154 l -3.75019,4.31789 -5.84892,4.69932 -5.84892,4.69932 -6.21448,3.56031 c -11.20926,6.42183 -23.79035,10.54605 -38.84921,12.73516 l -7.57661,1.10142 -10.23562,0.34798 -10.23562,0.34793 -7.5026,-0.66385 z m 281.30529,0.32535 c -19.51487,-1.31758 -34.4232,-4.35025 -50.44694,-10.26191 l -6.9456,-2.56241 -8.40783,-4.35532 -8.40783,-4.35533 -6.88161,-4.90988 -6.88162,-4.90987 -7.24166,-6.88404 -7.24165,-6.88411 -5.61685,-7.48151 c -5.07631,-6.76157 -11.92455,-17.45041 -12.88696,-20.11422 l -0.37603,-1.04082 7.84421,-4.45373 c 4.31432,-2.44953 13.27274,-7.58291 19.90762,-11.4076 26.4727,-15.26005 30.25629,-17.40442 30.70904,-17.40442 0.25895,0 2.09165,2.38527 4.07266,5.30059 9.15851,13.47797 18.90032,22.83413 30.65789,29.44421 l 4.39145,2.46883 6.57528,2.14458 6.57526,2.14458 6.72347,0.91499 6.72356,0.91499 9.36106,-0.40036 9.36098,-0.40036 4.75225,-1.24369 4.75225,-1.24364 6.06986,-2.81157 6.06987,-2.81158 4.5838,-4.59908 4.58387,-4.599 1.96364,-4.1705 1.9637,-4.17058 0.63182,-4.60281 0.63177,-4.60288 -0.63527,-5.07775 -0.63534,-5.07774 -2.14787,-4.59001 -2.14795,-4.59002 -3.48756,-3.72846 -3.4875,-3.7284 -5.98703,-3.98371 -5.9871,-3.98362 -9.7647,-4.64858 c -5.37063,-2.55671 -16.83832,-7.69258 -25.48376,-11.41293 -30.00161,-12.91062 -40.44567,-18.37315 -55.12506,-28.8319 l -7.23702,-5.15625 -6.00846,-5.84892 -6.00847,-5.84893 -4.55987,-6.19725 -4.55987,-6.19725 -3.24137,-6.45396 -3.24138,-6.45395 -2.16538,-6.46326 -2.16539,-6.46325 -1.46302,-8.55779 -1.46303,-8.5578 0.003,-11.07686 0.003,-11.07685 1.12125,-6.9456 1.12125,-6.94559 2.59893,-7.67671 2.59891,-7.67672 3.00709,-5.68369 3.00709,-5.68369 4.58399,-6.10781 4.58398,-6.1078 5.39458,-5.03793 5.39456,-5.03793 5.40749,-3.64181 c 2.97412,-2.00298 8.47075,-5.18409 12.21475,-7.06911 l 6.80726,-3.42732 6.71837,-2.22767 c 3.6951,-1.22522 9.84388,-2.86536 13.66396,-3.64475 l 6.94559,-1.41706 10.24946,-0.84236 10.24942,-0.84238 10.64717,0.74715 10.64715,0.74715 7.45124,1.51847 c 9.62221,1.96088 17.93697,4.60744 25.60432,8.14978 l 6.13793,2.83572 6.18399,4.11468 6.184,4.11468 6.81786,6.51798 6.81795,6.51798 5.04535,6.73273 c 5.41933,7.23173 10.78841,15.75299 10.25909,16.28225 -0.27724,0.2773 -16.33122,10.61889 -35.50282,22.8701 -2.9306,1.87276 -8.52363,5.46001 -12.42896,7.97166 -3.90532,2.51164 -7.28987,4.5679 -7.52128,4.56947 -0.23139,0.002 -2.03315,-2.54693 -4.00394,-5.6633 l -3.58328,-5.66615 -5.50047,-5.52262 -5.50054,-5.52261 -5.20876,-2.69402 -5.20869,-2.69402 -4.66137,-1.21492 -4.6613,-1.21492 -7.67671,-0.0253 -7.67671,-0.0254 -4.38669,1.29645 c -2.41268,0.71305 -5.97563,2.15641 -7.91762,3.20748 l -3.53089,1.91103 -3.90105,4.21358 -3.90104,4.21359 -1.62136,4.2292 -1.62136,4.22919 -0.35318,5.50756 -0.35317,5.50756 0.83066,3.99694 0.83065,3.99694 1.77512,3.82916 1.77511,3.82918 3.35222,3.5838 3.35223,3.58379 4.91069,3.28286 c 8.1066,5.4193 16.52306,9.40476 51.33658,24.30943 3.01585,1.29118 10.58289,4.89938 16.81565,8.01823 26.89086,13.45607 43.00084,25.61615 55.22597,41.68541 l 3.33622,4.38538 4.32945,8.77338 4.32952,8.77338 1.8272,6.58004 1.8272,6.58004 1.11796,7.77051 1.11802,7.77058 0,9.68239 0,9.68238 -1.13331,7.6324 -1.13329,7.63234 -1.83335,6.35265 -1.83342,6.35267 -3.68738,7.53049 -3.6873,7.53041 -4.19858,5.62966 -4.19851,5.62959 -6.51138,6.22501 -6.51146,6.22493 -6.58004,4.32199 -6.58003,4.32199 -6.21449,2.89383 c -12.69947,5.9137 -25.73401,9.6195 -41.30801,11.74419 l -8.04227,1.09712 -10.96673,0.32304 c -6.0317,0.17766 -12.77624,0.20084 -14.98787,0.0519 z"
     id="path2998"
     style="fill:#f2c43c;fill-opacity:1;filter:url(#filter3015)" />
</svg>
